<?xml version="1.0" encoding="utf-8"?>
<!-- Generator: Adobe Illustrator 27.4.1, SVG Export Plug-In . SVG Version: 6.00 Build 0)  -->
<svg version="1.1" xmlns="http://www.w3.org/2000/svg" xmlns:xlink="http://www.w3.org/1999/xlink" x="0px" y="0px"
	 viewBox="0 0 372.15 283.85" style="enable-background:new 0 0 372.15 283.85;" xml:space="preserve">
<style type="text/css">
	.st0{fill:#D4AC67;}
	.st1{fill:#FFFFFF;stroke:#FFFFFF;stroke-miterlimit:10;}
</style>
<g id="Layer_2">
</g>
<g id="Layer_1">
	<path class="st0" d="M14.99,44.57v-28h144v28h-57.25v147h-30V68.82l30-24.25H14.99z"/>
	<path class="st0" d="M354.49,16.57v175h-30V68.82l30-24.25h-30v-28H354.49z"/>
	<g>
		<path class="st1" d="M70.76,220.44c0-1.08,0.19-2.15,0.57-3.22c0.38-1.07,0.93-2.03,1.66-2.87c0.72-0.84,1.61-1.53,2.67-2.06
			c1.05-0.53,2.25-0.8,3.6-0.8c1.6,0,2.97,0.37,4.1,1.1c1.13,0.73,1.97,1.67,2.53,2.82l-1.06,0.61c-0.32-0.62-0.7-1.15-1.12-1.57
			s-0.89-0.76-1.39-1.02c-0.5-0.26-1.02-0.45-1.55-0.57c-0.54-0.12-1.07-0.18-1.59-0.18c-1.15,0-2.16,0.23-3.03,0.7
			c-0.88,0.46-1.62,1.07-2.23,1.81c-0.61,0.74-1.07,1.58-1.38,2.52c-0.31,0.94-0.47,1.88-0.47,2.82c0,1.06,0.19,2.07,0.56,3.03
			c0.37,0.96,0.88,1.81,1.52,2.54c0.64,0.73,1.4,1.32,2.28,1.76c0.88,0.44,1.82,0.66,2.83,0.66c0.54,0,1.1-0.07,1.67-0.2
			c0.57-0.13,1.12-0.34,1.64-0.63c0.52-0.29,1.01-0.65,1.47-1.1c0.46-0.45,0.83-0.97,1.14-1.58l1.11,0.53
			c-0.3,0.67-0.72,1.27-1.24,1.79c-0.52,0.52-1.1,0.96-1.74,1.31s-1.32,0.62-2.04,0.8c-0.72,0.18-1.42,0.26-2.11,0.26
			c-1.23,0-2.36-0.27-3.38-0.81c-1.02-0.54-1.9-1.24-2.64-2.11c-0.74-0.87-1.32-1.85-1.73-2.96
			C70.97,222.72,70.76,221.59,70.76,220.44z"/>
		<path class="st1" d="M96.42,229.67c-1.25,0-2.39-0.26-3.41-0.78c-1.03-0.52-1.91-1.21-2.65-2.05c-0.74-0.84-1.31-1.81-1.72-2.91
			c-0.4-1.1-0.61-2.22-0.61-3.36c0-1.2,0.21-2.34,0.64-3.44c0.43-1.1,1.02-2.06,1.77-2.91c0.75-0.84,1.64-1.51,2.67-2.01
			c1.03-0.5,2.14-0.75,3.34-0.75c1.25,0,2.39,0.27,3.43,0.8c1.04,0.53,1.92,1.23,2.65,2.09c0.73,0.86,1.3,1.83,1.71,2.92
			c0.4,1.09,0.61,2.19,0.61,3.3c0,1.21-0.21,2.37-0.64,3.46c-0.43,1.1-1.02,2.06-1.77,2.9c-0.75,0.83-1.64,1.5-2.67,2
			S97.62,229.67,96.42,229.67z M89.32,220.57c0,1.03,0.17,2.02,0.52,2.97c0.35,0.95,0.83,1.79,1.47,2.53
			c0.63,0.73,1.39,1.32,2.26,1.76s1.84,0.66,2.88,0.66c1.08,0,2.05-0.23,2.92-0.68c0.87-0.46,1.61-1.06,2.22-1.81
			s1.09-1.6,1.43-2.54c0.34-0.94,0.51-1.9,0.51-2.88c0-1.03-0.18-2.02-0.53-2.97s-0.85-1.79-1.48-2.53
			c-0.63-0.73-1.38-1.32-2.24-1.76c-0.86-0.44-1.8-0.66-2.83-0.66c-1.08,0-2.06,0.23-2.93,0.68c-0.88,0.46-1.63,1.06-2.25,1.81
			c-0.62,0.75-1.1,1.6-1.44,2.54C89.49,218.63,89.32,219.59,89.32,220.57z"/>
		<path class="st1" d="M108.3,229.55V211.6h7.46c0.76,0,1.46,0.16,2.1,0.48c0.64,0.32,1.19,0.75,1.66,1.28
			c0.46,0.53,0.83,1.13,1.09,1.79c0.26,0.67,0.39,1.34,0.39,2.01c0,0.66-0.1,1.29-0.3,1.91c-0.2,0.62-0.49,1.17-0.86,1.66
			c-0.37,0.49-0.82,0.89-1.34,1.21s-1.1,0.53-1.72,0.63l4.48,6.98h-1.49l-4.35-6.78h-5.81v6.78H108.3z M109.59,221.58h6.29
			c0.57,0,1.1-0.13,1.57-0.38c0.47-0.25,0.88-0.59,1.21-1c0.34-0.41,0.59-0.88,0.77-1.42c0.18-0.53,0.27-1.08,0.27-1.63
			c0-0.57-0.11-1.12-0.32-1.66c-0.21-0.53-0.5-1-0.86-1.4c-0.36-0.4-0.78-0.73-1.26-0.97c-0.48-0.24-1-0.37-1.55-0.37h-6.12V221.58z
			"/>
		<path class="st1" d="M124.71,229.55V211.6h7.38c0.76,0,1.46,0.16,2.1,0.48s1.19,0.75,1.66,1.28c0.46,0.53,0.83,1.13,1.09,1.79
			c0.26,0.67,0.39,1.34,0.39,2.01c0,0.72-0.12,1.42-0.37,2.1c-0.24,0.67-0.59,1.27-1.04,1.79c-0.45,0.52-0.98,0.94-1.61,1.25
			c-0.62,0.31-1.31,0.47-2.07,0.47H126v6.78H124.71z M126,221.58h6.19c0.59,0,1.12-0.12,1.59-0.37c0.47-0.24,0.87-0.57,1.2-0.99
			c0.33-0.41,0.58-0.88,0.76-1.42c0.18-0.53,0.27-1.08,0.27-1.66c0-0.59-0.11-1.15-0.32-1.68c-0.21-0.53-0.5-1-0.86-1.4
			c-0.36-0.4-0.78-0.72-1.26-0.96c-0.48-0.24-0.99-0.35-1.53-0.35H126V221.58z"/>
		<path class="st1" d="M147.57,229.67c-1.25,0-2.39-0.26-3.41-0.78c-1.03-0.52-1.91-1.21-2.65-2.05c-0.74-0.84-1.31-1.81-1.72-2.91
			c-0.4-1.1-0.61-2.22-0.61-3.36c0-1.2,0.21-2.34,0.64-3.44c0.43-1.1,1.02-2.06,1.77-2.91c0.75-0.84,1.64-1.51,2.67-2.01
			c1.03-0.5,2.14-0.75,3.34-0.75c1.25,0,2.39,0.27,3.43,0.8c1.04,0.53,1.92,1.23,2.65,2.09c0.73,0.86,1.3,1.83,1.71,2.92
			c0.4,1.09,0.61,2.19,0.61,3.3c0,1.21-0.21,2.37-0.64,3.46c-0.43,1.1-1.02,2.06-1.77,2.9c-0.75,0.83-1.64,1.5-2.67,2
			S148.76,229.67,147.57,229.67z M140.46,220.57c0,1.03,0.17,2.02,0.52,2.97c0.35,0.95,0.83,1.79,1.47,2.53
			c0.63,0.73,1.39,1.32,2.26,1.76s1.84,0.66,2.88,0.66c1.08,0,2.05-0.23,2.92-0.68c0.87-0.46,1.61-1.06,2.22-1.81
			s1.09-1.6,1.43-2.54c0.34-0.94,0.51-1.9,0.51-2.88c0-1.03-0.18-2.02-0.53-2.97s-0.85-1.79-1.48-2.53
			c-0.63-0.73-1.38-1.32-2.24-1.76c-0.86-0.44-1.8-0.66-2.83-0.66c-1.08,0-2.06,0.23-2.93,0.68c-0.88,0.46-1.63,1.06-2.25,1.81
			c-0.62,0.75-1.1,1.6-1.44,2.54C140.63,218.63,140.46,219.59,140.46,220.57z"/>
		<path class="st1" d="M159.45,229.55V211.6h7.46c0.76,0,1.46,0.16,2.1,0.48c0.64,0.32,1.19,0.75,1.66,1.28
			c0.46,0.53,0.83,1.13,1.09,1.79c0.26,0.67,0.39,1.34,0.39,2.01c0,0.66-0.1,1.29-0.3,1.91c-0.2,0.62-0.49,1.17-0.86,1.66
			c-0.37,0.49-0.82,0.89-1.34,1.21s-1.1,0.53-1.72,0.63l4.48,6.98h-1.49l-4.35-6.78h-5.81v6.78H159.45z M160.74,221.58h6.29
			c0.57,0,1.1-0.13,1.57-0.38c0.47-0.25,0.88-0.59,1.21-1c0.34-0.41,0.59-0.88,0.77-1.42c0.18-0.53,0.27-1.08,0.27-1.63
			c0-0.57-0.11-1.12-0.32-1.66c-0.21-0.53-0.5-1-0.86-1.4c-0.36-0.4-0.78-0.73-1.26-0.97c-0.48-0.24-1-0.37-1.55-0.37h-6.12V221.58z
			"/>
		<path class="st1" d="M181.21,211.6h1.11l7.58,17.95h-1.37l-2.5-5.92h-8.57l-2.5,5.92h-1.39L181.21,211.6z M185.69,222.57
			l-3.92-9.4l-3.99,9.4H185.69z"/>
		<path class="st1" d="M203.41,212.76h-6.57v16.79h-1.29v-16.79h-6.57v-1.16h14.44V212.76z"/>
		<path class="st1" d="M218.15,228.38v1.16h-11.96V211.6h11.73v1.16h-10.44v7.05h9.13v1.11h-9.13v7.46H218.15z"/>
		<path class="st1" d="M84.54,239.62h-6.57v16.79h-1.29v-16.79H70.1v-1.16h14.44V239.62z"/>
		<path class="st1" d="M87.32,256.41v-17.95h7.46c0.76,0,1.46,0.16,2.1,0.48c0.64,0.32,1.19,0.75,1.66,1.28
			c0.46,0.53,0.83,1.13,1.09,1.79s0.39,1.34,0.39,2.01c0,0.66-0.1,1.29-0.3,1.91c-0.2,0.62-0.49,1.17-0.86,1.66
			c-0.37,0.49-0.82,0.89-1.34,1.21s-1.1,0.53-1.72,0.63l4.48,6.98h-1.49l-4.35-6.78h-5.81v6.78H87.32z M88.61,248.44h6.29
			c0.57,0,1.1-0.13,1.57-0.38c0.47-0.25,0.88-0.59,1.21-1c0.34-0.41,0.59-0.88,0.77-1.42c0.18-0.53,0.27-1.08,0.27-1.63
			c0-0.57-0.11-1.12-0.32-1.66c-0.21-0.53-0.5-1-0.86-1.4c-0.36-0.4-0.78-0.73-1.26-0.97s-1-0.37-1.55-0.37h-6.12V248.44z"/>
		<path class="st1" d="M109.09,238.46h1.11l7.58,17.95h-1.37l-2.5-5.92h-8.57l-2.5,5.92h-1.39L109.09,238.46z M113.56,249.43
			l-3.92-9.41l-3.99,9.41H113.56z"/>
		<path class="st1" d="M121.8,240.88v15.52h-1.29v-17.95h0.99l12.59,15.8v-15.8h1.29v17.95h-1.19L121.8,240.88z"/>
		<path class="st1" d="M150.5,241.44c-1.16-1.3-2.81-1.95-4.93-1.95c-1.75,0-3.03,0.33-3.83,1c-0.8,0.67-1.2,1.56-1.2,2.69
			c0,0.57,0.1,1.05,0.3,1.43c0.2,0.38,0.52,0.7,0.95,0.97s0.97,0.5,1.63,0.68c0.66,0.19,1.45,0.38,2.38,0.58
			c0.96,0.2,1.83,0.43,2.62,0.67c0.78,0.25,1.45,0.55,2,0.92c0.55,0.37,0.97,0.83,1.26,1.37c0.29,0.54,0.44,1.21,0.44,2
			c0,0.79-0.16,1.48-0.47,2.07c-0.31,0.59-0.75,1.08-1.31,1.48c-0.56,0.4-1.24,0.7-2.02,0.9s-1.66,0.3-2.62,0.3
			c-2.8,0-5.17-0.89-7.1-2.68l0.68-1.04c0.76,0.79,1.69,1.42,2.78,1.88c1.1,0.46,2.33,0.7,3.69,0.7c1.57,0,2.79-0.29,3.68-0.86
			c0.88-0.57,1.33-1.44,1.33-2.6c0-0.59-0.12-1.09-0.35-1.5c-0.24-0.41-0.59-0.77-1.05-1.07c-0.46-0.3-1.05-0.56-1.76-0.78
			c-0.71-0.22-1.53-0.43-2.48-0.63c-0.96-0.2-1.81-0.42-2.54-0.64c-0.73-0.23-1.35-0.51-1.85-0.86s-0.87-0.76-1.12-1.25
			c-0.25-0.49-0.38-1.1-0.38-1.85c0-0.81,0.16-1.53,0.47-2.15c0.31-0.62,0.75-1.15,1.3-1.58s1.22-0.75,2-0.97
			c0.78-0.22,1.63-0.33,2.58-0.33c1.16,0,2.2,0.17,3.11,0.52s1.74,0.87,2.48,1.58L150.5,241.44z"/>
		<path class="st1" d="M155.35,256.41v-17.95h7.38c0.76,0,1.46,0.16,2.1,0.48c0.64,0.32,1.19,0.75,1.66,1.28
			c0.46,0.53,0.83,1.13,1.09,1.79c0.26,0.67,0.39,1.34,0.39,2.01c0,0.72-0.12,1.42-0.37,2.1c-0.24,0.67-0.59,1.27-1.04,1.79
			c-0.45,0.52-0.98,0.94-1.61,1.25c-0.62,0.31-1.31,0.47-2.07,0.47h-6.24v6.78H155.35z M156.64,248.44h6.19
			c0.59,0,1.12-0.12,1.59-0.37c0.47-0.24,0.87-0.57,1.2-0.99c0.33-0.41,0.58-0.88,0.76-1.42c0.18-0.53,0.27-1.08,0.27-1.66
			c0-0.59-0.11-1.15-0.32-1.68c-0.21-0.53-0.5-1-0.86-1.4c-0.36-0.4-0.78-0.72-1.26-0.96s-0.99-0.35-1.53-0.35h-6.04V248.44z"/>
		<path class="st1" d="M178.21,256.53c-1.25,0-2.39-0.26-3.41-0.78c-1.03-0.52-1.91-1.21-2.65-2.05c-0.74-0.84-1.31-1.81-1.72-2.91
			c-0.4-1.1-0.61-2.22-0.61-3.36c0-1.2,0.21-2.34,0.64-3.44c0.43-1.1,1.02-2.06,1.77-2.91c0.75-0.84,1.64-1.51,2.67-2.01
			c1.03-0.5,2.14-0.75,3.34-0.75c1.25,0,2.39,0.27,3.43,0.8c1.04,0.53,1.92,1.23,2.65,2.09c0.73,0.86,1.3,1.83,1.71,2.92
			c0.4,1.09,0.61,2.19,0.61,3.3c0,1.21-0.21,2.37-0.64,3.46c-0.43,1.1-1.02,2.06-1.77,2.9c-0.75,0.83-1.64,1.5-2.67,2
			S179.4,256.53,178.21,256.53z M171.1,247.43c0,1.03,0.17,2.02,0.52,2.97c0.35,0.95,0.83,1.79,1.47,2.53
			c0.63,0.73,1.39,1.32,2.26,1.76s1.84,0.66,2.88,0.66c1.08,0,2.05-0.23,2.92-0.68c0.87-0.46,1.61-1.06,2.22-1.81
			s1.09-1.6,1.43-2.54c0.34-0.94,0.51-1.9,0.51-2.88c0-1.03-0.18-2.02-0.53-2.97s-0.85-1.79-1.48-2.53
			c-0.63-0.73-1.38-1.32-2.24-1.76c-0.86-0.44-1.8-0.66-2.83-0.66c-1.08,0-2.06,0.23-2.93,0.68c-0.88,0.46-1.63,1.06-2.25,1.81
			c-0.62,0.75-1.1,1.6-1.44,2.54C171.27,245.49,171.1,246.45,171.1,247.43z"/>
		<path class="st1" d="M190.09,256.41v-17.95h7.46c0.76,0,1.46,0.16,2.1,0.48c0.64,0.32,1.19,0.75,1.66,1.28
			c0.46,0.53,0.83,1.13,1.09,1.79s0.39,1.34,0.39,2.01c0,0.66-0.1,1.29-0.3,1.91c-0.2,0.62-0.49,1.17-0.86,1.66
			c-0.37,0.49-0.82,0.89-1.34,1.21c-0.52,0.32-1.1,0.53-1.72,0.63l4.47,6.98h-1.49l-4.35-6.78h-5.81v6.78H190.09z M191.38,248.44
			h6.29c0.57,0,1.1-0.13,1.57-0.38s0.88-0.59,1.21-1c0.34-0.41,0.59-0.88,0.77-1.42c0.18-0.53,0.27-1.08,0.27-1.63
			c0-0.57-0.11-1.12-0.32-1.66c-0.21-0.53-0.5-1-0.86-1.4c-0.36-0.4-0.78-0.73-1.26-0.97s-1-0.37-1.55-0.37h-6.12V248.44z"/>
		<path class="st1" d="M218.76,239.62h-6.57v16.79h-1.29v-16.79h-6.57v-1.16h14.44V239.62z"/>
		<path class="st1" d="M225.41,238.46h1.11l7.58,17.95h-1.37l-2.5-5.92h-8.57l-2.5,5.92h-1.39L225.41,238.46z M229.88,249.43
			l-3.92-9.41l-3.99,9.41H229.88z"/>
		<path class="st1" d="M247.6,239.62h-6.57v16.79h-1.29v-16.79h-6.57v-1.16h14.44V239.62z"/>
		<path class="st1" d="M250.38,256.41v-17.95h1.29v17.95H250.38z"/>
		<path class="st1" d="M263.53,256.53c-1.25,0-2.38-0.26-3.41-0.78s-1.91-1.21-2.65-2.05c-0.74-0.84-1.31-1.81-1.72-2.91
			c-0.4-1.1-0.61-2.22-0.61-3.36c0-1.2,0.21-2.34,0.64-3.44c0.43-1.1,1.02-2.06,1.77-2.91s1.64-1.51,2.67-2.01
			c1.03-0.5,2.14-0.75,3.34-0.75c1.25,0,2.39,0.27,3.43,0.8c1.04,0.53,1.92,1.23,2.65,2.09s1.3,1.83,1.71,2.92
			c0.41,1.09,0.61,2.19,0.61,3.3c0,1.21-0.21,2.37-0.64,3.46c-0.43,1.1-1.02,2.06-1.77,2.9c-0.75,0.83-1.64,1.5-2.67,2
			S264.73,256.53,263.53,256.53z M256.43,247.43c0,1.03,0.17,2.02,0.52,2.97s0.83,1.79,1.47,2.53c0.63,0.73,1.39,1.32,2.26,1.76
			c0.88,0.44,1.84,0.66,2.88,0.66c1.08,0,2.05-0.23,2.92-0.68s1.61-1.06,2.22-1.81s1.09-1.6,1.43-2.54c0.34-0.94,0.51-1.9,0.51-2.88
			c0-1.03-0.18-2.02-0.53-2.97c-0.35-0.95-0.85-1.79-1.48-2.53c-0.63-0.73-1.38-1.32-2.24-1.76c-0.86-0.44-1.8-0.66-2.83-0.66
			c-1.08,0-2.06,0.23-2.93,0.68c-0.88,0.46-1.63,1.06-2.25,1.81c-0.62,0.75-1.1,1.6-1.44,2.54
			C256.59,245.49,256.43,246.45,256.43,247.43z"/>
		<path class="st1" d="M276.7,240.88v15.52h-1.29v-17.95h0.99l12.59,15.8v-15.8h1.29v17.95h-1.19L276.7,240.88z"/>
	</g>
	<polygon class="st0" points="164.49,191.57 199.49,191.57 236.49,132.57 324.02,273.41 359.02,273.41 253.74,104.07 308.99,16.57 
		273.99,16.57 236.49,76.32 199.49,16.57 164.49,16.57 230.74,123.32 207.24,123.32 	"/>
</g>
</svg>
